<svg xmlns="http://www.w3.org/2000/svg" display="none">
<symbol id="logo" viewBox="0 0 160 137">
<path d="M105.702 57.8919C105.55 58.197 105.353 58.4294 105.102 58.5823C104.852 58.7344 104.556 58.8101 104.217 58.8101C103.532 58.8101 103.004 58.5331 102.632 57.982C102.261 57.4309 102.074 56.6384 102.074 55.6081C102.074 53.5166 102.722 51.7211 104.019 50.2245C105.317 48.7288 106.874 47.9809 108.691 47.9809C109.944 47.9809 110.918 48.2897 111.621 48.9127C112.323 49.5349 112.677 50.3949 112.677 51.5016C112.677 52.1011 112.57 52.8898 112.351 53.8618C112.131 54.8338 111.782 56.0737 111.303 57.5785C113.272 54.0677 114.923 51.6128 116.266 50.2162C117.603 48.8143 118.923 48.1156 120.225 48.1156C121.003 48.1156 121.607 48.3616 122.042 48.8499C122.476 49.3427 122.69 50.0277 122.69 50.9104C122.69 52.0027 122.006 54.0632 120.632 57.0903L120.328 57.7352C122.605 54.2335 124.52 51.7339 126.073 50.2336C127.621 48.7333 129.043 47.9809 130.337 47.9809C131.053 47.9809 131.639 48.2231 132.095 48.7113C132.556 49.1951 132.784 49.8173 132.784 50.5788C132.784 51.6666 132.05 53.9511 130.587 57.4309L130.234 58.2727L130.023 58.7836C128.551 62.3036 127.818 64.386 127.818 65.0355C127.818 65.6312 128.019 66.0657 128.422 66.339C128.824 66.6123 129.482 66.7644 130.39 66.7917C130.869 66.7644 131.316 66.7039 131.697 66.6077C132.077 66.5116 132.421 66.3791 132.725 66.2043C132.694 66.0211 132.668 65.828 132.65 65.6312C132.632 65.439 132.623 65.224 132.623 64.9954C132.623 64.2702 132.78 63.4769 133.093 62.6124C133.411 61.7525 133.848 60.9062 134.417 60.0735C135.294 58.8147 136.261 57.8564 137.321 57.1932C138.386 56.5354 139.481 56.2039 140.618 56.2039C141.187 56.2039 141.674 56.2887 142.086 56.4544C142.497 56.6202 142.887 56.8844 143.254 57.2515L143.437 56.6603C143.549 56.2977 143.665 56.0691 143.777 55.9753C143.889 55.8769 144.054 55.8277 144.274 55.8277C144.878 55.8277 145.406 55.9306 145.853 56.1365C146.305 56.3469 146.529 56.5892 146.529 56.8715C146.529 56.9609 146.34 57.3681 145.965 58.1031C145.589 58.8419 145.258 59.5406 144.972 60.203C144.395 61.5247 143.961 62.6578 143.665 63.598C143.374 64.5389 143.227 65.2596 143.227 65.766C143.227 66.1195 143.334 66.361 143.553 66.4957C144.795 67.2565 146.542 66.5653 147.361 65.4972C148 64.6729 148.578 63.3384 149.101 61.5019C149.356 60.6155 149.616 59.5671 149.889 58.3491C150.238 56.7232 150.788 55.9079 151.548 55.9079C152.237 55.9079 152.725 55.9488 153.012 56.0245C153.302 56.1055 153.446 56.244 153.446 56.4454C153.446 56.5937 153.173 57.3462 152.631 58.6936C152.09 60.0417 151.611 61.3452 151.191 62.6086C152.555 60.396 153.804 58.7791 154.936 57.7579C156.068 56.7413 157.172 56.2304 158.255 56.2304C158.806 56.2304 159.235 56.3787 159.539 56.6694C159.848 56.9654 160 57.3726 160 57.8965C160 58.4922 159.495 60.0417 158.484 62.5549L158.157 63.3785C157.938 63.9114 157.768 64.4087 157.638 64.8697C157.513 65.3269 157.45 65.6539 157.45 65.8462C157.45 66.1687 157.571 66.3973 157.817 66.5267C158.059 66.6615 158.546 66.7463 159.266 66.7917L158.77 68.5645H158.47C157.034 68.5645 155.982 68.3722 155.311 67.9869C154.644 67.6016 154.309 66.9976 154.309 66.1778C154.309 65.8015 154.434 65.224 154.69 64.4443C154.945 63.6654 155.33 62.6707 155.844 61.4664L155.947 61.215C156.394 60.2121 156.618 59.6163 156.618 59.4331C156.618 59.281 156.582 59.1735 156.506 59.1016C156.434 59.0342 156.318 58.9986 156.161 58.9986C155.643 58.9986 154.846 59.6526 153.768 60.9645C152.69 62.2771 151.741 63.8713 150.931 65.7433C150.766 66.1195 150.587 66.5767 150.394 67.1225C150.028 68.1217 149.312 68.6182 148.247 68.6182C147.897 68.6182 147.652 68.5872 147.513 68.5198C147.374 68.4525 147.302 68.3367 147.302 68.1709C147.302 68.0853 147.325 67.9695 147.374 67.8212C147.423 67.6781 147.5 67.4941 147.603 67.2792C147.222 67.6736 146.774 67.9779 146.265 68.1883C144.976 68.7318 142.533 68.7167 141.405 68.1308C140.846 67.8439 140.569 67.3511 140.569 66.6615C140.569 66.3572 140.623 65.981 140.725 65.5328C140.833 65.0892 141.008 64.5162 141.249 63.813C140.314 65.4791 139.388 66.6925 138.47 67.4631C137.553 68.2337 136.569 68.6182 135.517 68.6182C135.021 68.6182 134.587 68.5471 134.216 68.4078C133.845 68.2693 133.553 68.0634 133.343 67.7901C132.905 68.0271 132.408 68.2065 131.849 68.3367C131.289 68.4616 130.632 68.538 129.881 68.5645H129.491C127.759 68.5645 126.493 68.2784 125.702 67.7046C124.909 67.1316 124.516 66.227 124.516 64.9954C124.516 63.9114 125.383 61.3407 127.124 57.2924C127.491 56.4408 127.773 55.7875 127.974 55.3212L128.109 55.0215C128.882 53.1987 129.267 52.0791 129.267 51.6583C129.267 51.4652 129.204 51.304 129.083 51.1655C128.963 51.0307 128.815 50.9641 128.65 50.9641C127.979 50.9641 126.73 52.0655 124.909 54.2645C123.084 56.4635 121.442 59.0387 119.983 61.9856C119.523 62.8948 119.079 63.8266 118.654 64.7849C118.229 65.7433 117.832 66.7152 117.455 67.7046C117.303 68.1035 117.12 68.3541 116.896 68.4616C116.672 68.5645 116.31 68.6182 115.813 68.6182C115.062 68.6182 114.507 68.5554 114.149 68.426C113.787 68.3003 113.607 68.1081 113.607 67.8439C113.607 67.6963 113.934 66.8984 114.578 65.4655C115.089 64.3148 115.509 63.3611 115.841 62.5995C117.066 59.7821 118.019 57.4446 118.708 55.5816C119.393 53.7225 119.737 52.5401 119.737 52.0435C119.737 51.7703 119.656 51.5462 119.5 51.3668C119.343 51.1874 119.147 51.0981 118.909 51.0981C118.073 51.0981 116.91 52.0746 115.424 54.0276C113.939 55.9844 112.494 58.4786 111.098 61.5246C110.574 62.6707 110.046 63.9515 109.523 65.358C108.999 66.769 108.7 67.5615 108.619 67.7364C108.445 68.1391 108.256 68.3904 108.055 68.4797C107.859 68.5736 107.456 68.6182 106.851 68.6182C106.234 68.6182 105.751 68.5516 105.411 68.4214C105.071 68.2912 104.901 68.108 104.901 67.8704C104.901 67.6243 105.223 66.7288 105.872 65.1748C106.516 63.6252 107.049 62.2899 107.469 61.1704C108.158 59.3794 108.709 57.686 109.116 56.0964C109.523 54.5067 109.724 53.3418 109.724 52.6075C109.724 52.0072 109.577 51.5417 109.286 51.2147C108.99 50.8876 108.574 50.7219 108.033 50.7219C107.124 50.7219 106.342 51.1836 105.688 52.1056C105.03 53.0284 104.704 54.126 104.704 55.4022C104.704 55.9442 104.794 56.4408 104.972 56.8889C105.151 57.3416 105.393 57.6732 105.702 57.8919ZM142.587 58.8374C142.35 58.6534 142.117 58.5195 141.885 58.4294C141.652 58.3446 141.419 58.2999 141.182 58.2999C140.663 58.2999 140.072 58.524 139.401 58.9714C138.734 59.415 138.095 60.0243 137.482 60.7942C136.922 61.5019 136.476 62.2544 136.149 63.0469C135.822 63.8402 135.657 64.5344 135.657 65.1294C135.657 65.5555 135.732 65.8735 135.88 66.0794C136.028 66.2853 136.256 66.3882 136.56 66.3882C137.419 66.3882 138.358 65.7478 139.383 64.4715C140.408 63.1953 141.473 61.3142 142.587 58.8374Z" />
<path d="M28.2637 68.5645H27.8697C26.2945 68.5645 25.1632 68.3813 24.4735 68.0188C23.78 67.6554 23.436 67.0687 23.436 66.2542C23.436 65.5283 23.7672 64.4489 24.4289 63.0159C25.0868 61.5875 25.418 60.6693 25.418 60.2658C25.418 60.0736 25.3061 59.876 25.0777 59.6701C24.8493 59.4642 24.4652 59.2045 23.9237 58.8866C22.7516 62.2771 21.5431 64.713 20.2992 66.196C19.0559 67.6781 17.579 68.4661 15.8654 68.5645L16.3759 66.7917C17.458 66.6077 18.4517 65.8689 19.3509 64.5791C20.25 63.2892 21.2883 61.041 22.4695 57.8382C22.2683 57.6368 22.1201 57.4128 22.0218 57.1668C21.9281 56.9207 21.8789 56.6429 21.8789 56.3296C21.8789 55.6975 22.0536 55.1737 22.3977 54.7573C22.7425 54.341 23.1766 54.1343 23.6999 54.1343C24.1831 54.1343 24.5635 54.2645 24.841 54.5287C25.1223 54.7929 25.2615 55.1426 25.2615 55.5771C25.2615 55.7876 25.2388 55.9844 25.1942 56.1638C25.1541 56.3424 25.0822 56.5264 24.9839 56.7096C25.4316 56.9874 26.0086 57.3235 26.7157 57.7178C27.9997 58.412 28.644 59.0971 28.644 59.7821C28.644 60.3597 28.2947 61.3771 27.5967 62.841C26.8987 64.3013 26.5501 65.2952 26.5501 65.8197C26.5501 66.1331 26.6703 66.3572 26.9078 66.4821C27.149 66.6077 27.7714 66.7152 28.7733 66.8046C29.2966 66.7781 29.8199 66.6819 30.2949 66.5404C30.7682 66.3996 31.2386 66.2005 31.6999 65.9401C31.6908 65.878 31.6863 65.8152 31.6818 65.7478C31.6772 65.685 31.6727 65.5866 31.6727 65.4519C31.6727 64.5881 32.1332 62.8191 33.0505 60.1492C33.2252 59.6527 33.3553 59.2674 33.4445 58.9941C33.5292 58.7473 33.6411 58.4165 33.7848 57.9957C34.2363 56.6028 34.6885 55.9079 35.1309 55.9079C35.726 55.9079 36.3076 56.02 36.8808 56.244C37.4532 56.4681 37.7398 56.7058 37.7398 56.9609C37.7398 57.0547 37.5341 57.543 37.1175 58.4165C36.7015 59.2939 36.3302 60.1318 35.999 60.938C35.4576 62.2589 35.0734 63.2665 34.8541 63.9561C34.6303 64.6502 34.5183 65.1566 34.5183 65.4791C34.5183 65.7524 34.5856 65.9583 34.7195 66.0968C34.8586 66.2361 35.0507 66.308 35.3056 66.308C35.8962 66.308 36.5805 65.8243 37.3458 64.8569C38.1157 63.8895 38.8447 62.5905 39.5336 60.9645C39.9185 60.0826 40.2807 59.0388 40.621 57.8382C40.9696 56.6066 41.4491 55.9889 42.0616 55.9889C42.6386 55.9889 43.1445 56.0828 43.5831 56.2758C44.0172 56.4681 44.2357 56.6967 44.2357 56.9609C44.2357 57.0547 44.0346 57.5521 43.6323 58.443C43.2338 59.3347 42.8806 60.1765 42.5721 60.9645C42.1471 62.0667 41.8287 62.9977 41.623 63.7547C41.4173 64.5117 41.3145 65.1211 41.3145 65.582C41.3145 66.0211 41.4309 66.3254 41.6638 66.4957C41.896 66.666 42.3482 66.7644 43.019 66.7917C43.999 66.6925 44.781 66.3648 45.3277 65.8016C45.8767 65.2361 46.3615 64.2074 46.7774 62.7071L47.8785 58.8102H46.6072C46.4152 58.8102 46.2851 58.7882 46.214 58.739C46.1467 58.6898 46.1112 58.6043 46.1112 58.4831C46.1112 58.4657 46.1112 58.443 46.1149 58.4165C46.1195 58.3893 46.1376 58.3401 46.1649 58.2598L46.3751 57.6323C46.4242 57.462 46.5135 57.35 46.6428 57.2879C46.7683 57.2296 47.0194 57.1978 47.3952 57.1978H48.3655L49.6495 52.9436C49.7214 52.715 49.8023 52.4016 49.9006 51.9982C50.169 50.8612 50.7105 50.2919 51.5242 50.2919C52.1019 50.2919 52.5489 50.3638 52.8755 50.5069C53.1977 50.6545 53.3588 50.8566 53.3588 51.1208C53.3588 51.2949 53.2605 51.631 53.0593 52.1284C52.9519 52.3925 52.8755 52.603 52.8218 52.7597L51.3139 57.1978H53.5153C53.6855 57.1978 53.811 57.2205 53.9002 57.2697C53.9849 57.3189 54.0303 57.3954 54.0303 57.4983C54.0303 57.543 54.0303 57.5831 54.0257 57.6187C54.0212 57.6505 54.0121 57.6861 54.0031 57.7224L53.7792 58.3537C53.7255 58.5195 53.6318 58.6361 53.4934 58.7072C53.3497 58.7746 53.1085 58.8102 52.7545 58.8102H50.8307L49.5467 63.0515C49.3947 63.5216 49.2873 63.9341 49.2162 64.2785C49.1489 64.6237 49.1126 64.9061 49.1126 65.1256C49.1126 65.6222 49.3501 66.012 49.8197 66.2944C50.2938 66.5722 50.9963 66.7379 51.9318 66.7917L51.4168 68.5645H51.1037C49.9407 68.5645 48.9697 68.426 48.1824 68.1527C47.3952 67.8749 46.8265 67.4768 46.4779 66.9484C45.9183 67.4321 45.296 67.8113 44.6207 68.0899C43.9401 68.3715 43.2292 68.529 42.5222 68.5645H42.2718C41.0233 68.5645 40.1559 68.4169 39.6727 68.1262C39.1895 67.8303 38.943 67.3201 38.943 66.5805C38.943 66.2853 38.9921 65.9181 39.0912 65.4791C39.185 65.0446 39.3415 64.4716 39.5608 63.7593C38.2677 65.685 37.2385 66.9658 36.4732 67.6062C35.7132 68.2466 34.9078 68.5645 34.0707 68.5645C33.5118 68.5645 33.0505 68.4661 32.6838 68.2739C32.317 68.0808 32.0531 67.7947 31.8965 67.4094C31.3906 67.7584 30.8537 68.0233 30.2903 68.2019C29.7224 68.3821 29.0327 68.5025 28.2637 68.5645Z" />
<path d="M6.23275 67.5797C5.6913 68.3321 5.1007 68.9051 4.46093 69.3086C3.82117 69.7068 3.1678 69.9081 2.4925 69.9081C1.67805 69.9081 1.06022 69.6303 0.635224 69.0709C0.21023 68.5108 0 67.6963 0 66.6297C0 65.448 0.286607 64.0908 0.859065 62.5632C1.43228 61.0319 2.2369 59.4823 3.27972 57.9192C4.12064 56.6558 5.02432 55.5279 5.99984 54.5196C6.97536 53.5121 7.89265 52.7551 8.75172 52.2494C8.77441 52.0208 8.80541 51.712 8.84095 51.3176C8.96195 49.8529 9.16764 48.9929 9.45878 48.7288C9.63271 48.563 9.9594 48.3972 10.4426 48.2322C10.9213 48.0664 11.3153 47.9809 11.6193 47.9809C11.7539 47.9809 11.8658 48.0392 11.9596 48.1512C12.0579 48.2678 12.1071 48.3972 12.1071 48.5456C12.1071 48.6258 12.098 48.7114 12.0851 48.8098C12.0715 48.9036 12.0579 49.0111 12.0398 49.1231C12.5638 48.756 13.1181 48.4737 13.7042 48.2768C14.2903 48.0793 14.868 47.9809 15.4314 47.9809C16.5325 47.9809 17.4271 48.3662 18.1114 49.1322C18.7958 49.8975 19.1407 50.8922 19.1407 52.1192C19.1407 53.4318 18.7383 54.6097 17.9284 55.6528C17.1231 56.6921 15.9509 57.5339 14.4158 58.1743C14.9973 58.9267 15.4269 59.6746 15.7089 60.4225C15.991 61.1704 16.1339 61.9274 16.1339 62.6889C16.1339 64.3323 15.5751 65.7296 14.4559 66.8855C13.3374 68.0407 11.9641 68.6183 10.3307 68.6183C9.63271 68.6183 8.94834 68.5335 8.28211 68.3632C7.61512 68.1928 6.93074 67.9286 6.23275 67.5797ZM7.97735 55.4287C7.16366 56.1638 6.40744 57.0593 5.71399 58.1115C5.01978 59.1689 4.33994 60.4361 3.67371 61.9228C3.26611 62.8766 2.95757 63.7055 2.75188 64.4133C2.54619 65.1165 2.44334 65.685 2.44334 66.124C2.44334 66.3746 2.4925 66.5585 2.58627 66.6751C2.68458 66.7871 2.83204 66.8454 3.03395 66.8454C3.67825 66.8454 4.43371 65.8553 5.29278 63.8713C6.15638 61.8918 7.05174 59.0789 7.97735 55.4287ZM7.36028 65.5237C7.8072 65.6449 8.19665 65.7342 8.54149 65.7925C8.88103 65.8508 9.18579 65.878 9.45878 65.878C10.5409 65.878 11.4318 65.4609 12.1343 64.6328C12.8323 63.8039 13.1809 62.7608 13.1809 61.5019C13.1809 61.0137 13.1136 60.5572 12.9843 60.1401C12.8542 59.7193 12.644 59.3029 12.3536 58.8957C12.1207 58.9267 11.8968 58.954 11.6911 58.9714C11.49 58.9895 11.3062 58.9986 11.1497 58.9986C10.9841 58.9986 10.8011 58.9941 10.5992 58.9805C10.398 58.9668 10.1787 58.9449 9.94201 58.9176C9.58356 60.2749 9.19033 61.5019 8.76079 62.6041C8.3358 63.701 7.86543 64.6774 7.36028 65.5237ZM10.7156 55.9034C11.1633 55.9488 11.5838 56.0472 11.9732 56.1993C12.3664 56.3515 12.7514 56.5665 13.1272 56.8488C14.08 56.141 14.8189 55.3932 15.3331 54.6097C15.8473 53.8255 16.1075 53.0821 16.1075 52.3834C16.1075 51.7165 15.9509 51.2056 15.6326 50.8521C15.3195 50.4978 14.8589 50.3192 14.2593 50.3192C13.8388 50.3192 13.4093 50.4085 12.9797 50.5879C12.5457 50.7665 12.1025 51.0353 11.6465 51.3978C11.5346 52.1147 11.4 52.8497 11.248 53.6014C11.096 54.3584 10.9168 55.1244 10.7156 55.9034Z" />
<path fill-rule="evenodd" clip-rule="evenodd" d="M68.8235 131.829C70.0531 130.414 78.2543 124.776 80.8194 125.995C78.7284 126.599 76.3025 127.643 74.5526 128.566L68.8235 131.829ZM82.8838 63.2142C82.4634 64.5397 81.1551 65.5056 79.6064 65.5056C77.7173 65.5056 76.186 64.0689 76.186 62.296C76.186 61.6405 76.3955 61.0304 76.7554 60.5225C76.6632 60.8131 76.6133 60.7685 76.6133 61.4407C76.6133 62.1121 77.0413 63.3134 77.8368 63.9008C78.2596 62.9198 79.403 60.362 79.4975 58.5475C77.284 58.627 75.516 60.3408 75.516 62.4437C75.516 64.5972 77.3702 66.3428 79.6578 66.3428C81.9454 66.3428 83.7996 64.3323 83.7996 62.4437C83.7996 60.555 82.9905 59.5338 81.4916 58.9464C81.3343 60.527 80.6666 61.7071 79.5345 63.0144C79.9815 61.4672 80.6817 60.1583 80.5963 58.6724C80.0503 60.7844 79.2003 62.4527 78.1144 64.0976C79.5708 65.1241 81.8546 64.6684 82.8838 63.2142ZM117.293 121.906L113.902 117.569C113.116 116.513 111.217 114.266 110.838 113.319C111.524 111.326 107.179 109.384 108.061 106.801L107.209 106.869C107.493 106.593 108.131 105.987 107.16 105.98C105.152 105.965 104.027 101.171 102.794 101.304C102.601 102.208 105.785 105.933 106.276 106.617C106.982 107.602 110.096 111.085 109.823 112.027C109.182 111.399 108.319 110.117 107.729 109.347C107.062 108.472 106.476 107.616 105.747 106.683C104.982 105.707 104.507 104.968 103.766 104.02C103.062 103.119 102.108 102.321 101.95 101.179C102.722 100.379 103.31 100.024 104.501 99.9593L109.567 108.359C109.435 107.926 91.8299 75.5862 90.6729 74.8452C88.4874 73.444 82.0422 74.4674 80.8579 72.6265C82.849 72.7423 85.5102 72.9081 87.1504 72.1685C83.1493 71.7946 78.3238 71.7037 77.0647 67.5812C81.4251 68.4979 83.8987 67.3678 85.1578 63.6828C87.1035 66.7001 88.8723 69.6425 90.6971 72.7287C97.9795 85.0378 114.79 111.097 117.293 121.906ZM121.246 12.2048C132.694 2.31341 144.159 15.9692 136.57 27.3193C133.667 32.2449 129.063 32.3554 124.796 32.7423C128.281 33.8588 131.923 33.2805 134.648 31.4372C137.56 29.4668 138.333 27.5767 139.71 24.0408C139.505 30.7227 131.894 37.4877 122.282 34.3478C123.768 28.7591 122.062 27.2913 117.137 26.7841C115.948 21.4429 116.936 15.9299 121.246 12.2048ZM126.883 97.7716L126.133 98.1039C125.496 97.8254 124.479 92.7938 124.219 91.8354L124.921 98.4688C124.669 99.2931 120.939 101.388 120.212 101.377C119.553 101.232 119.076 96.805 118.364 95.8277L118.667 102.341C117.206 103.604 116.105 104.322 114.118 104.665C113.209 103.847 111.431 98.3749 113.564 97.4143C114.683 98.3636 114.398 100.167 115.261 101.272L115.091 96.3001C116.727 95.0246 118.528 94.0579 120.016 92.6007C116.967 93.7619 109.774 100.047 107.918 100.096C107.625 99.2053 107.351 99.6202 109.339 98.3401C112.013 96.618 123.69 88.7008 124.672 88.4434C125.87 90.8832 126.533 94.9799 126.883 97.7716ZM126.242 87.143C127.821 86.3542 129.323 84.9704 130.963 84.243C131.276 84.6298 134.127 93.139 132.584 94.1336C131.336 93.357 131.371 89.7477 130.74 88.345C130.827 90.6455 131.416 92.332 131.228 94.8929C130.676 95.2797 128.681 96.6225 128.016 96.8428C127.033 95.4863 126.204 88.1096 126.242 87.143ZM142.813 88.4124C144.246 87.4389 145.792 86.2565 147.128 85.4473C145.8 86.0355 143.298 87.7955 142.031 87.8908C141.272 86.2437 140.068 78.5445 141.708 77.0835C142.224 76.6233 143.788 75.6642 144.42 75.3273C146.894 76.7103 148.524 81.9842 149.755 82.8592C150.138 82.1462 150.046 81.284 150.133 80.3635C150.133 81.1704 150.191 82.2355 150.534 82.9523C151.277 82.8365 151.199 82.8418 151.738 82.4452L151.133 83.6404L153.816 84.0886C152.833 84.1226 152.017 84.0182 151.329 84.4073C151.175 84.9848 151.338 85.0847 151.724 85.5586C149.38 84.4126 150.838 86.1884 149.917 87.4465C151.763 79.1523 118.937 110.471 112.612 108.823L114.643 106.989L113.297 107.523L113.233 107.238C123.305 101.432 133.075 94.7748 142.813 88.4124ZM13.8449 82.0962C13.4516 81.6814 13.6187 81.8676 13.3412 81.6927C12.8474 82.4285 13.351 82.9993 14.2434 82.5882C14.2093 82.5489 13.9137 82.1689 13.8449 82.0962ZM44.722 112.565C44.5027 113.493 40.5386 120.999 39.7688 122.541C38.9453 124.193 35.1846 131.596 34.9305 132.698C34.9305 132.698 39.2152 128.107 42.2053 124.281L49.3009 115.287C49.8567 115.406 55.0338 117.992 55.4936 118.311C62.2557 121.242 67.2641 122.604 74.883 124.881C73.3298 125.937 68.9119 127.364 65.0605 129.979C63.9534 130.732 61.3792 132.256 62.3117 134.144C63.1072 135.754 65.518 136.122 67.8661 135.989C70.1831 132.852 72.4858 130.66 76.4098 128.571C77.6841 127.894 80.5312 126.448 81.9083 126.182C83.8231 125.813 87.1905 126.908 88.9169 125.527C89.8622 124.771 89.7185 123.648 90.4158 123.078C93.1276 121.539 105.421 114.459 108.383 113.141C111.597 116.953 121.253 130.147 124.407 132.725C123.666 130.4 113.103 110.334 113.414 110.195C120.618 107.655 141.589 92.416 149.587 87.1127C149.656 89.5956 149.467 89.7523 150.221 89.7523C151.295 88.7038 150.144 85.7622 151.248 86.0893C151.899 86.2815 152.09 86.8311 152.913 86.909C153.103 85.6449 152.25 85.9765 152.101 84.6798C153.431 84.4285 154.833 84.732 156.028 84.2755C155.898 83.863 156.292 83.5663 154.412 83.483C150.18 83.296 152.851 83.1885 153.021 81.147C151.522 81.2484 152.111 82.0213 150.788 82.0955C150.721 80.8502 150.893 78.8526 150.22 78.1516C147.198 79.7337 149.218 76.4386 144.884 73.6938C132.392 81.8691 119.818 90.5289 107.068 98.2349C100.743 86.6479 94.4268 75.095 88.0344 63.5443C92.7427 52.9906 103.811 48.074 109.44 40.5792C112.255 36.8284 111.526 33.7733 116.113 36.8102C120.913 39.9895 126.496 39.6981 131.615 37.6951C137.285 35.4764 141.975 30.5046 144.192 24.7357C150.215 9.0573 135.236 -3.40249 120.758 4.27928C115.386 7.12853 112.038 12.1321 109.498 18.5422C106.606 25.8409 106.491 34.5461 101.866 40.5035C96.5948 45.9946 88.2152 45.5427 81.2973 45.6736L79.7418 48.4306C79.108 47.8984 78.4562 46.4707 78.0191 45.6994C69.1418 45.1332 60.983 46.4798 55.4346 37.6368C52.1632 32.4243 52.1745 23.05 47.8754 14.5416C41.797 2.5125 28.5382 -1.59408 17.8082 5.72661C12.5169 9.33662 13.0788 9.37144 6.75076 9.9861C6.91562 13.453 10.6823 15.752 13.9817 16.649C14.7213 23.0893 15.2741 26.1899 18.5553 30.4229C20.7219 33.2169 25.086 37.0275 29.3579 38.1728C11.7781 25.4352 26.9826 35.3796 29.3919 36.5309C33.0006 38.2553 34.9048 36.9435 38.2972 36.0434C37.8896 37.1592 37.0834 37.6944 35.9174 38.0971C39.7484 38.1418 41.7584 35.2592 43.5136 33.559C43.084 37.0328 39.4466 38.4029 37.6914 39.5596C40.041 39.5005 42.073 38.2727 43.3026 37.0782C44.2426 36.1653 46.1452 33.7437 48.0471 37.5945C52.2456 46.0968 66.3809 53.3274 71.2464 63.5329C68.3758 69.3041 64.6764 75.2335 61.5547 81.1523L54.3888 94.4303C53.755 95.5923 52.6396 98.1077 51.8532 98.8738C46.8893 96.5204 29.6362 82.2234 27.4727 80.2878C25.3991 78.4317 23.5464 76.6248 20.6501 75.0367C18.1024 73.6408 13.8146 72.3676 10.8744 74.0655C8.22615 75.5938 7.24684 78.9419 8.54073 82.7586C12.4345 94.2464 35.1558 104.389 44.722 112.565ZM23.4012 86.9189C21.4146 85.464 21.0501 86.5124 19.4159 87.6706C20.0451 85.9946 22.7024 82.8153 24.2451 81.8328C32.2747 88.507 39.6085 93.9731 48.3572 99.8003C54.8107 103.843 60.4128 107.104 67.1507 110.717C79.1224 117.137 77.3332 113.863 76.1974 120.557L75.9191 119.786C74.9481 115.776 74.9239 116.105 68.8015 113.246C62.8395 110.462 55.4898 106.263 49.8643 102.938L40.8003 97.5589C43.0054 99.2175 44.9784 100.967 47.607 102.641C55.3703 107.587 58.9919 109.471 66.7113 113.725C67.8472 114.351 69.7196 115.01 70.6301 115.844C67.5515 115.255 57.1444 109.613 54.0401 107.814C51.4282 106.302 48.9062 104.806 46.3819 103.172C38.3373 97.9632 31.1668 92.6068 23.4012 86.9189ZM37.9425 90.4918C38.8326 90.9256 40.162 91.8233 40.162 91.8233C40.1144 91.7915 51.9772 100.098 58.3491 103.067C64.5032 97.1479 74.9957 78.0419 79.6926 74.7445L100.402 102.512C101.373 103.8 101.765 104.1 101.502 106.296C100.949 110.913 99.1524 112.44 95.4257 114.844C93.8082 115.888 91.2514 117.474 89.2043 118.093C88.2129 117.267 88.1743 117.012 86.7443 116.428L66.5911 107.573L75.5591 112.29C76.8295 112.938 84.5331 116.302 84.9362 116.748C83.3081 117.492 64.628 107.682 62.3797 106.434C53.7709 101.655 45.6393 96.6468 37.9425 90.4918ZM139.416 8.55997C136.575 7.46917 135.574 6.529 131.974 6.08314C123.604 5.04533 118.367 10.8892 115.126 17.6754C112.941 22.2491 109.39 36.3091 106.131 38.8942C106.501 37.8609 107.031 36.8534 107.443 35.7944C111.467 25.442 112.725 10.5985 123.863 5.53283C130.378 2.56927 134.751 5.05215 139.416 8.55997ZM82.8037 122.695C82.0278 122.489 81.6451 122.274 81.1642 122.17C81.1718 123.631 82.1359 123.59 82.8037 122.695ZM93.7484 83.5405C95.2374 83.6563 96.0307 85.1536 94.2044 85.7214C93.5087 85.9379 91.3784 86.7274 90.8287 86.5185C90.1693 85.9386 89.3162 84.8546 89.2262 83.9137C89.9772 83.4959 93.1283 81.8706 94.0676 82.3559C93.7189 83.4323 92.3956 83.3028 91.1168 84.2218L93.7484 83.5405ZM134.298 92.5546C133.374 90.8521 132.7 85.1506 132.483 83.0061C133.994 82.3369 135.518 80.8389 136.913 80.3468C137.692 82.1681 137.931 84.6094 138.328 86.5003C138.291 84.9106 137.521 80.3181 138.452 79.3658C139.46 81.7026 140.015 86.6267 139.786 89.5342L134.683 92.9656L134.298 92.5546ZM87.1096 80.5035C86.7322 79.471 85.7779 77.0298 85.3363 76.079L83.8654 76.1002C84.2337 77.0033 86.4955 79.9472 87.1096 80.5035ZM111.594 106.422L111.255 106.391L108.402 100.974C109.237 100.549 108.954 100.406 109.852 100.288C111.25 101.671 111.903 104.506 111.594 106.422ZM146.08 85.0643L148.4 83.6026C148.096 82.1992 147.097 80.5323 146.367 79.4506L146.08 85.0643ZM81.3291 121.222C83.8526 120.827 83.6272 123.314 82.4074 123.667C80.861 124.116 80.0783 122.385 81.3291 121.222ZM77.3725 120.644C78.2936 120.858 79.9066 121.189 80.0783 122.093C79.4839 122.347 78.6611 121.752 77.8406 121.672C77.0957 122.405 77.1804 122.593 76.3894 123.072L77.3725 120.644ZM85.7582 120.461C84.4174 119.373 78.5825 117.317 78.0024 116.516C78.9802 115.936 85.5351 119.319 86.2505 119.7C91.6915 122.605 86.3609 125.287 83.7452 123.255C83.9879 122.734 84.4522 122.774 84.853 122.588C83.4049 122.331 84.1981 122.186 83.3875 121.173C82.086 119.549 81.624 121.523 79.3009 120.631C78.5961 120.36 78.0546 120.178 77.5147 119.765L77.8164 117.853C80.346 118.228 83.3043 119.892 85.7582 120.461ZM45.5599 114.648L46.2624 115.084C45.9184 116.068 44.0686 118.675 43.2338 119.965C43.0205 120.266 42.324 121.429 41.9777 121.451L45.5599 114.648ZM90.3848 120.423C90.3976 119.551 90.3674 119.743 91.0782 119.32L94.2604 117.627C95.8386 116.747 96.9616 116.062 98.5058 115.14C103.861 111.944 101.888 108.653 103.664 106.648C105.123 109.857 103.341 108.331 104.67 111.436C105.603 111.483 106.124 111.264 106.768 111.044C107.158 111.508 107.391 111.667 107.676 112.292C105.37 113.682 93.815 119.978 91.811 120.637L94.2664 119.036L90.3848 120.423ZM53.6242 100.017C53.7868 98.9904 54.4281 98.275 54.785 97.4219C55.9556 97.5468 56.4744 97.9245 56.9879 98.6225C56.3958 99.5944 56.0388 100.312 55.2955 101.135L53.6242 100.017ZM100.441 99.6853C100.947 98.6263 102.719 97.87 103.556 98.3901C103.188 99.3 101.583 99.3832 100.441 99.6853ZM101.5 94.9739C102.016 95.7868 102.664 96.5809 102.811 97.4605C101.953 98.0093 100.617 98.3621 99.5259 98.2758C98.9187 97.6165 98.2706 96.9231 97.9401 96.1184L101.5 94.9739ZM56.4789 94.9042C56.5606 94.1139 56.9175 93.5084 57.4507 92.8233L59.9893 93.9746C59.6014 94.9337 59.0002 95.4205 58.647 96.3712C57.605 96.1282 56.9788 95.5582 56.4789 94.9042ZM58.1101 91.9263C58.2651 90.8249 59.4199 89.1156 59.9946 88.2353C61.0571 88.4843 62.1408 89.2277 62.7729 89.7939L60.4287 93.4819C59.522 93.114 58.7484 92.4463 58.1101 91.9263ZM96.6281 86.8947C97.3866 87.7266 100.71 93.276 100.821 94.2078C99.811 94.8399 98.6359 95.5166 97.5567 95.6044C96.8709 94.8633 95.9362 93.5878 95.4771 92.8135C95.7766 92.1163 96.6062 91.3676 97.2217 91.0883C96.4179 91.3199 95.2904 91.8952 94.4184 91.3086C93.9564 90.9975 93.0482 89.722 92.8493 89.0952C93.387 88.0597 95.1005 86.9984 96.6281 86.8947ZM61.2393 85.9295C62.1332 85.6911 64.8495 87.0945 63.9761 87.9787C63.5292 88.4306 60.9618 87.3103 61.2393 85.9295ZM62.3722 84.9122C62.3321 83.3452 63.1617 82.8865 63.6313 81.5769C64.6869 81.6905 66.4784 82.4255 67.1522 83.0863L64.7837 86.5836L62.3722 84.9122ZM13.3412 83.0318C11.5195 81.9895 13.8365 80.1054 14.8098 81.3203C15.8382 82.6057 14.6117 83.7585 13.3412 83.0318ZM23.2681 80.9615C21.1182 83.2703 18.1666 87.5381 16.5423 89.1474C16.7691 86.5911 18.1772 84.7653 19.0968 83.0432C17.7968 83.6276 17.6365 84.162 16.5892 85.118L14.9981 83.7237C15.1796 83.0689 15.4269 83.2756 15.5161 82.5353C15.8443 79.8207 13.9923 80.3665 12.4262 80.7367L10.7897 78.415C10.1666 79.4173 10.088 80.1803 9.75144 81.3324C7.46917 71.485 20.5086 76.4658 23.2681 80.9615ZM82.7114 75.5393C84.4545 75.4523 88.9147 75.0624 90.0755 75.9042C90.3734 76.1199 93.0557 79.9873 92.8931 81.1939C91.5312 81.9539 89.5612 82.5958 87.8121 82.4581C87.0529 81.7003 83.0162 76.2925 82.7114 75.5393ZM67.8661 82.1114C66.9904 81.6905 65.084 79.8669 65.3864 78.7617L69.836 71.0875C70.528 69.9256 72.4873 68.8575 73.4984 69.2965C73.751 70.0369 73.7442 71.2299 73.6958 72.1465C73.5831 74.3092 71.9232 75.073 70.7246 77.7406L68.6541 77.3765C69.005 78.001 68.6503 77.4666 69.0193 77.8935C69.0692 77.9503 69.2258 78.107 69.278 78.1562C69.3846 78.2561 69.7891 78.5225 69.9873 78.6633L67.8661 82.1114ZM70.0054 56.5869C71.8325 55.6059 75.5107 56.079 77.6576 56.5014C76.1845 58.0305 74.7401 60.2749 73.4341 62.0054C73.171 60.5459 73.2526 59.1826 73.0537 57.8753C72.9222 58.2758 72.1395 60.5383 72.0366 60.7458C71.1723 60.0017 69.7521 58.2523 70.0054 56.5869ZM84.7963 57.4242C84.1823 56.8648 82.48 53.4152 81.8977 52.2366C80.2976 48.9998 94.1477 47.2837 98.4196 45.9151C95.8711 48.5918 92.1664 50.1663 88.3521 51.0701C87.2782 51.3245 85.188 51.3835 84.397 51.9141C86.1174 52.9626 88.3241 53.0458 89.5673 53.7218L84.7963 57.4242ZM71.8347 50.9929C70.7102 50.2594 60.4423 47.1694 57.8787 44.0038C62.2224 45.7721 62.2701 46.7508 68.9679 47.747C73.4379 48.4116 77.2568 47.6789 78.491 53.0867L72.9017 52.9141C75.1613 53.603 79.4536 53.9905 80.5985 56.0306C75.2604 54.145 69.4322 56.0079 66.8641 53.1457C66.2032 52.41 64.7996 51.036 64.3852 50.2503C66.8747 50.4759 69.1917 51.1087 71.8347 50.9929ZM20.0564 8.4555C22.1111 5.62442 28.6894 3.46704 33.6238 4.86518C42.6901 7.43435 46.1951 17.5278 48.615 25.6418C50.0798 30.5516 51.3745 34.5567 53.169 38.845C49.8514 34.612 48.5137 28.806 46.4212 22.9682C44.6524 18.035 41.282 10.6439 37.5092 9.22308C38.974 10.6977 41.3909 12.9754 41.8733 15.7058C40.8834 14.8058 40.4592 13.5825 38.9407 13.2017C41.6805 16.2826 44.077 21.2908 41.9951 26.9211C37.6015 27.1073 36.9194 28.2572 36.2425 32.3161C28.8074 34.1616 20.5782 29.8567 21.0168 19.3733C21.5288 7.13837 33.564 7.85295 36.9148 11.3418C35.9408 9.76356 33.4468 8.57586 30.9747 8.23447C24.5711 7.35184 21.128 11.7362 17.9005 13.7248C15.8382 14.995 12.1865 15.2297 11.0143 13.2736C18.4056 13.9511 19.3063 9.6659 23.9245 7.38363C22.5444 7.41012 21.2649 8.06642 20.0564 8.4555Z" />
<path d="M55.8936 8.7878C55.9912 8.99975 56.0494 9.22078 56.0668 9.44939C56.0849 9.678 56.0502 9.91266 55.9632 10.1534C55.8762 10.3941 55.7303 10.6378 55.5246 10.8831C55.3189 11.1291 55.0217 11.3782 54.6315 11.6302C55.5079 11.3819 56.1636 11.3365 56.5992 11.494C57.0348 11.6507 57.3645 11.9709 57.5883 12.4553L59.0947 15.7156C59.2255 15.9987 59.2376 16.2765 59.1325 16.5475C59.0266 16.8185 58.8451 17.082 58.5888 17.3371C58.3324 17.5914 58.0156 17.8351 57.639 18.0668C57.2616 18.2992 56.8465 18.5202 56.3935 18.7299L55.6864 19.0569C55.3128 19.2015 54.9998 19.2742 54.7479 19.2764C54.4954 19.2787 54.3154 19.3044 54.2065 19.3552C54.0794 19.4142 53.938 19.5368 53.7823 19.7238C53.6265 19.91 53.3724 20.0993 53.0215 20.2908L52.2865 20.6307L51.9923 19.9933C52.409 19.8003 52.6396 19.6791 52.6827 19.6307C52.7266 19.5815 52.7152 19.4861 52.6494 19.3446C50.7793 15.2955 49.614 12.7748 47.7786 8.80142C47.7181 8.67198 47.6546 8.6046 47.5866 8.60006C47.5185 8.59552 47.2757 8.69014 46.8591 8.88317L46.5641 8.2458L47.2712 7.91803C47.6758 7.74544 48.0108 7.66142 48.2777 7.66747C48.5447 7.67277 48.7413 7.64628 48.8683 7.58723C48.9954 7.52894 49.1429 7.39572 49.3115 7.18907C49.4794 6.98166 49.7607 6.77954 50.1539 6.58349L50.7528 6.30643C51.1695 6.1134 51.5907 5.95444 52.0172 5.82878C52.443 5.70312 52.8347 5.63273 53.1909 5.61835C53.5478 5.60396 53.8632 5.64408 54.1384 5.73946C54.4129 5.83408 54.605 5.99986 54.7147 6.23603L55.8936 8.7878ZM54.6988 12.8467C54.5513 12.528 54.3207 12.3978 54.0069 12.4568C53.693 12.5166 53.2824 12.6635 52.775 12.8982L53.0691 13.5363L55.0346 17.789L55.3287 18.4271C55.9095 18.1584 56.2997 17.9199 56.5009 17.7118C56.702 17.5043 56.7398 17.2644 56.6143 16.9926L54.6988 12.8467ZM52.136 7.30034C51.9779 6.95819 51.7352 6.82647 51.4092 6.90595C51.0826 6.98544 50.6833 7.13456 50.2121 7.35257L50.4988 7.97253L52.1526 11.5515L52.4392 12.1722C52.9285 11.9451 53.3036 11.7324 53.5637 11.5333C53.8238 11.3335 53.8798 11.0746 53.7323 10.7559L52.136 7.30034ZM69.1743 13.6294L69.3694 14.3046L68.679 14.5052C68.288 14.5923 67.9682 14.6173 67.7186 14.5817C67.4691 14.5461 67.2868 14.5446 67.1719 14.5779C67.0562 14.6112 66.9034 14.7104 66.7113 14.8746C66.52 15.0389 66.2357 15.1888 65.8598 15.3258L64.9962 15.5763L64.8004 14.9019C65.1649 14.7959 65.3925 14.7194 65.4825 14.6725C65.5732 14.6263 65.602 14.5469 65.5694 14.4341L64.7217 12.587L63.1964 13.0306L63.4694 15.0449C63.5019 15.1577 63.5685 15.2092 63.6698 15.2001C63.7712 15.191 63.995 15.1358 64.3398 15.0359L64.5357 15.7103L64.1039 15.836C63.7326 15.917 63.4172 15.9412 63.1579 15.9079C62.8985 15.8746 62.7117 15.8753 62.5967 15.9087C62.4621 15.948 62.3041 16.0479 62.1218 16.2092C61.9403 16.3704 61.6515 16.5226 61.256 16.6649L60.7667 16.8064L60.5708 16.132L60.8869 16.0396C61.1176 15.973 61.2666 15.9124 61.3339 15.8587C61.4019 15.8057 61.4193 15.6884 61.3883 15.5082C60.9565 10.7711 60.6593 7.56604 60.2147 2.75698L60.2721 2.74033C60.6442 2.65933 60.9497 2.63814 61.1894 2.67674C61.4299 2.71535 61.5978 2.72065 61.6938 2.69264C61.8277 2.65403 61.9819 2.5579 62.1566 2.40575C62.3306 2.2536 62.5854 2.10826 62.9189 1.97049C64.8548 6.2262 66.2493 9.25257 68.2071 13.5249C68.2669 13.6566 68.3228 13.7422 68.375 13.7808C68.4279 13.8194 68.5694 13.8058 68.8 13.7384L69.1743 13.6294ZM64.5251 11.9118L62.4084 6.87568L63.0006 12.3554L64.5251 11.9118ZM78.7443 12.0451C78.7685 12.3569 78.8396 12.5666 78.9583 12.6749C79.077 12.7831 79.375 12.8187 79.8529 12.7816L79.9058 13.4629C79.2691 13.5121 78.6656 13.5529 78.097 13.584C77.529 13.615 77.0473 13.5484 76.6541 13.3826C76.3214 13.2259 76.1179 12.9875 76.0423 12.6673C75.9674 12.3463 75.919 12.0435 75.8964 11.7582L75.5863 7.76815C75.5606 7.43054 75.4048 7.23675 75.1205 7.18755C74.8361 7.13759 74.455 7.13154 73.9771 7.16863C73.8848 7.26779 73.8326 7.37604 73.8221 7.49413L74.2395 12.8664C74.2455 12.9436 74.2455 13.0094 74.2395 13.0617C74.2342 13.1147 74.2516 13.1487 74.2932 13.1654C74.334 13.182 74.4149 13.1888 74.5352 13.1858C74.6546 13.1828 74.8543 13.1707 75.1333 13.1487L75.1863 13.83L74.3196 13.8974C73.8999 13.9042 73.5755 13.8641 73.3487 13.7778C73.1218 13.6907 72.9486 13.6521 72.8284 13.6612C72.7097 13.6703 72.544 13.7354 72.3331 13.8565C72.1221 13.9776 71.8279 14.0654 71.4521 14.1207L70.5559 14.1911L70.503 13.5098C70.9809 13.4727 71.2585 13.4349 71.3356 13.3955C71.4127 13.3569 71.4445 13.2532 71.4316 13.0851C71.0732 8.46986 70.8698 5.86209 70.5174 1.32933C70.5045 1.16052 70.4569 1.06287 70.3752 1.03638C70.2928 1.01064 70.0122 1.01594 69.5343 1.05304L69.4829 0.391436L70.1703 0.337694C70.6081 0.30363 70.9567 0.335423 71.2146 0.432316C71.4725 0.529965 71.6714 0.573111 71.8105 0.562513C71.9504 0.551915 72.1395 0.477734 72.3799 0.342236C72.6197 0.20598 72.9781 0.118928 73.456 0.0818362L74.1434 0.0280894C74.6017 -0.00748836 75.0471 -0.0090036 75.4804 0.0220323C75.9137 0.0538252 76.31 0.124227 76.6692 0.233231C77.0284 0.342235 77.3196 0.489089 77.5449 0.673791C77.7695 0.858492 77.8928 1.0871 77.914 1.35961L78.1469 4.35722C78.1665 4.61687 78.19 4.85001 78.2157 5.05667C78.2421 5.26332 78.2119 5.45862 78.1264 5.64181C78.0402 5.82424 77.8837 5.99986 77.6561 6.16791C77.4292 6.3352 77.0814 6.50249 76.6133 6.66978C77.1025 6.775 77.467 6.89082 77.7075 7.01572C77.9472 7.14062 78.1242 7.28672 78.2369 7.45401C78.3503 7.6213 78.4153 7.81508 78.4327 8.03612C78.4494 8.2564 78.4698 8.51604 78.4932 8.81429L78.7443 12.0451ZM75.1054 1.57837C75.0751 1.18929 74.8929 0.975063 74.5594 0.935701C74.2259 0.896338 73.81 0.896337 73.3124 0.934943L73.7041 5.97639C73.7298 6.05209 73.7699 6.11794 73.8243 6.17245C73.8788 6.22695 73.9287 6.28524 73.9733 6.34655C74.4301 6.29811 74.79 6.22468 75.0532 6.12551C75.3163 6.02711 75.4351 5.81516 75.4094 5.49042L75.1054 1.57837ZM90.0036 5.1248C89.9855 5.3587 89.928 5.57898 89.832 5.78715C89.7359 5.99456 89.5907 6.18229 89.3979 6.35034C89.2043 6.51839 88.9578 6.65843 88.6583 6.77273C88.3596 6.88628 87.9777 6.95819 87.5149 6.98695C88.3997 7.19966 88.9941 7.4805 89.2973 7.83098C89.6013 8.1807 89.7321 8.62202 89.6905 9.15417L89.4123 12.7354C89.3881 13.0465 89.2633 13.2948 89.0387 13.4795C88.8141 13.6642 88.5275 13.805 88.1796 13.9019C87.831 13.9988 87.4363 14.0563 86.9939 14.0737C86.5522 14.0919 86.0819 14.0813 85.5843 14.0427L84.8069 13.9822C84.4106 13.9254 84.1021 13.8361 83.8813 13.7142C83.6605 13.5923 83.4903 13.5272 83.3708 13.5174C83.2309 13.5068 83.0479 13.5446 82.8211 13.6317C82.5934 13.718 82.2796 13.7588 81.8796 13.7543L81.0727 13.6915L81.1271 12.9905C81.5854 13.0261 81.8455 13.0337 81.9068 13.0125C81.9688 12.9905 82.0059 12.9019 82.018 12.7468C82.3635 8.29879 82.5791 5.52978 82.9179 1.16582C82.9292 1.02351 82.9065 0.933433 82.849 0.896341C82.7916 0.859249 82.5345 0.822914 82.0762 0.787337L82.1306 0.0863779L82.9073 0.146935C83.3444 0.193867 83.6779 0.28546 83.9077 0.420201C84.1376 0.5557 84.3221 0.629128 84.462 0.639726C84.6012 0.65108 84.7948 0.607177 85.0428 0.508771C85.2909 0.411121 85.6349 0.372514 86.0736 0.393709L86.7307 0.444425C87.189 0.480003 87.6344 0.547372 88.0677 0.646536C88.501 0.7457 88.8769 0.875902 89.1945 1.03789C89.5128 1.19989 89.7684 1.38913 89.962 1.60638C90.1549 1.82439 90.2418 2.06284 90.2214 2.32248L90.0036 5.1248ZM86.9787 8.08078C87.006 7.7303 86.8683 7.50472 86.5659 7.40253C86.2634 7.3011 85.8331 7.22843 85.2757 7.18453L85.2213 7.88548L84.8575 12.5568L84.8031 13.257C85.4406 13.3069 85.8981 13.2903 86.1749 13.2078C86.4517 13.1245 86.6021 12.9337 86.6248 12.6355L86.9787 8.08078ZM87.4529 1.98865C87.4816 1.61244 87.3349 1.37929 87.0113 1.28845C86.6876 1.19837 86.2664 1.13327 85.7491 1.09239L85.6962 1.77367L85.3907 5.7054L85.3378 6.38667C85.8754 6.42831 86.3065 6.42604 86.6301 6.37986C86.9545 6.33293 87.13 6.1346 87.1572 5.78412L87.4529 1.98865ZM98.0959 7.53425L99.2166 3.67216L97.4902 3.17029L95.9717 8.40098L98.3893 9.10345L98.1927 9.77867L95.7758 9.07545L94.0781 14.9246L95.8046 15.4265L97.0728 11.0587L97.1015 11.067C97.3132 11.1965 97.4788 11.3085 97.5968 11.4039C97.7148 11.4993 97.8214 11.5613 97.9174 11.5886C98.0324 11.6227 98.1602 11.6295 98.3016 11.609C98.4423 11.5894 98.626 11.5848 98.8514 11.5962L97.3926 16.6202L93.8823 15.5998C93.5064 15.4628 93.2221 15.3129 93.0308 15.1486C92.8387 14.9844 92.6761 14.883 92.5415 14.8436C92.4265 14.8103 92.2488 14.8126 92.0091 14.8512C91.7694 14.8898 91.4442 14.8633 91.0336 14.7709L90.4006 14.587L90.5965 13.9118C91.0381 14.0404 91.2907 14.1002 91.3557 14.0919C91.4208 14.0836 91.4745 14.0049 91.5183 13.855C92.7661 9.55612 93.5321 6.91655 94.7557 2.70021C94.7958 2.56244 94.7912 2.47009 94.7428 2.4224C94.6944 2.37395 94.4494 2.28614 94.0086 2.15746L94.2044 1.483L94.8086 1.65861C95.2268 1.79336 95.5346 1.95081 95.7327 2.13021C95.9301 2.30961 96.1055 2.42164 96.2591 2.4663C96.374 2.50037 96.5631 2.49431 96.8262 2.44814C97.0886 2.40272 97.4335 2.43527 97.8585 2.54579L101.196 3.51623L99.8851 8.03461C99.6885 7.92257 99.5373 7.81811 99.4306 7.71895C99.324 7.62054 99.2129 7.55392 99.0979 7.52062C99.0019 7.49261 98.8778 7.49034 98.7258 7.51381C98.5731 7.53727 98.3825 7.55014 98.1534 7.5509L98.0959 7.53425ZM106.625 18.9381C106.494 19.2212 106.454 19.4392 106.504 19.5921C106.555 19.7442 106.798 19.9214 107.233 20.1227L106.947 20.7427C106.366 20.474 105.821 20.2143 105.309 19.963C104.798 19.7124 104.411 19.4187 104.149 19.0819C103.935 18.7821 103.873 18.474 103.965 18.1576C104.056 17.8412 104.162 17.5536 104.281 17.2939L105.96 13.6612C106.101 13.3539 106.06 13.1094 105.837 12.9269C105.613 12.7445 105.284 12.5522 104.848 12.3509C104.72 12.3918 104.621 12.4606 104.554 12.559L102.294 17.4491C102.262 17.5202 102.23 17.577 102.199 17.6202C102.168 17.6633 102.167 17.7019 102.195 17.7367C102.223 17.7708 102.29 17.8162 102.396 17.8722C102.502 17.929 102.682 18.0161 102.936 18.1334L102.649 18.7534L101.86 18.3885C101.491 18.1887 101.228 17.9949 101.072 17.8079C100.917 17.6217 100.784 17.5028 100.675 17.4521C100.566 17.4022 100.391 17.3779 100.148 17.3802C99.9048 17.3825 99.6053 17.3151 99.2499 17.1796L98.4339 16.8019L98.7206 16.1819C99.1554 16.3833 99.4163 16.4862 99.5025 16.49C99.5887 16.4938 99.6673 16.4196 99.7384 16.2659C101.68 12.064 102.776 9.69011 104.683 5.56384C104.754 5.41018 104.76 5.30193 104.701 5.23834C104.643 5.17551 104.395 5.04304 103.96 4.84169L104.239 4.23914L104.864 4.52906C105.263 4.71376 105.551 4.91133 105.728 5.12252C105.906 5.33372 106.058 5.46922 106.185 5.52751C106.312 5.58655 106.513 5.61532 106.789 5.6138C107.065 5.61229 107.42 5.71221 107.856 5.91356L108.481 6.20349C108.898 6.39651 109.288 6.61301 109.65 6.85221C110.012 7.09217 110.324 7.34727 110.584 7.61827C110.844 7.88851 111.027 8.16026 111.132 8.43126C111.238 8.70226 111.234 8.9619 111.12 9.21018L109.859 11.9391C109.749 12.1753 109.655 12.3895 109.578 12.5833C109.499 12.7763 109.378 12.9315 109.214 13.0488C109.049 13.1669 108.827 13.2426 108.547 13.2782C108.266 13.313 107.881 13.2888 107.391 13.2055C107.766 13.5371 108.028 13.8164 108.177 14.0427C108.325 14.269 108.408 14.4833 108.425 14.6846C108.442 14.886 108.404 15.0866 108.312 15.2879C108.219 15.4885 108.11 15.7247 107.984 15.9965L106.625 18.9381ZM108.563 8.02628C108.727 7.67202 108.672 7.39647 108.401 7.1989C108.129 7.00133 107.766 6.79771 107.313 6.58727L105.193 11.1768C105.178 11.2563 105.181 11.3327 105.202 11.4069C105.223 11.4811 105.238 11.5561 105.247 11.6317C105.669 11.8134 106.019 11.9247 106.296 11.9671C106.574 12.0095 106.781 11.8838 106.917 11.5878L108.563 8.02628Z" />
<path d="M68.133 29.2435C68.133 29.5561 68.133 29.8453 68.133 30.1125C68.133 30.379 68.0838 30.6227 67.9848 30.8445C67.8857 31.0655 67.7118 31.2608 67.4637 31.4296C67.2157 31.5992 66.8429 31.7423 66.3468 31.8596C66.1683 31.8982 65.9399 31.9209 65.6624 31.9277C65.3841 31.9345 65.1013 31.9247 64.8139 31.8982C64.5258 31.8725 64.2627 31.8301 64.0244 31.7718C63.7862 31.7127 63.6274 31.6378 63.548 31.547L63.4588 31.8006H61.7618V26.5691C61.9206 26.6077 62.0447 26.6698 62.1339 26.7546C62.2231 26.8394 62.3577 26.881 62.5362 26.881C62.695 26.881 62.8289 26.8394 62.9378 26.7546C63.0474 26.6698 63.1911 26.6077 63.3696 26.5691V30.4736C63.3696 30.6689 63.4641 30.815 63.6524 30.9126C63.8414 31.0103 64.0494 31.0587 64.2778 31.0587C64.5062 31.0587 64.7141 31.0103 64.9032 30.9126C65.0915 30.815 65.186 30.6689 65.186 30.4736V29.0285C65.186 28.6515 65.1663 28.3094 65.1263 28.0036C65.0869 27.6978 65.0219 27.4086 64.9327 27.1353C64.8434 26.8621 64.7194 26.5888 64.5606 26.3148C64.5198 26.2451 62.0726 23.1658 61.8662 22.8887C61.6575 22.6094 61.5093 22.3717 61.4193 22.1764C61.33 21.9811 61.2756 21.7896 61.2559 21.6003C61.2363 21.4118 61.2264 21.1484 61.2264 20.8101V19.6776C61.2264 19.1833 61.4639 18.7798 61.9403 18.4672C62.1195 18.337 62.3524 18.2235 62.6406 18.1258C62.9279 18.0282 63.2508 17.9729 63.6078 17.9593C63.9851 17.9335 64.367 17.9404 64.7542 17.979C65.1414 18.0183 65.434 18.116 65.6322 18.2719L65.7222 18.0766H67.6271V22.8206C67.4289 22.782 67.2898 22.7131 67.2104 22.6154C67.131 22.5178 66.982 22.4693 66.7635 22.4693C66.526 22.4693 66.3574 22.5216 66.2576 22.6253C66.1585 22.7297 65.9997 22.7948 65.7811 22.8206H65.7222V19.4437C65.7222 19.2484 65.6375 19.0985 65.4688 18.9941C65.3002 18.8904 65.1217 18.8381 64.9327 18.8381C64.7444 18.8381 64.5659 18.8904 64.3973 18.9941C64.2279 19.0985 64.1439 19.2484 64.1439 19.4437V20.4777C64.1439 20.9599 64.1591 21.3339 64.1885 21.6003C64.218 21.8675 64.2725 22.0916 64.3519 22.274C64.432 22.4565 64.5409 22.6321 64.6793 22.8009C66.0004 24.4087 65.828 24.0249 67.2104 26.0029C67.4289 26.3148 67.6074 26.6145 67.7466 26.9007C67.8857 27.1868 67.9848 27.4767 68.0437 27.7697C68.1035 28.0626 68.133 28.3911 68.133 28.7552V29.2435ZM78.3752 18.8578C78.1173 18.8578 77.9237 18.8608 77.7944 18.8677C77.6651 18.8737 77.5759 18.8866 77.5267 18.9063C77.4768 18.9259 77.4519 18.9555 77.4519 18.9941C77.4519 19.0334 77.4519 19.0917 77.4519 19.1697C77.4519 23.5722 77.4519 26.2459 77.4519 30.7855C77.4519 30.8642 77.4519 30.9255 77.4519 30.9709C77.4519 31.0163 77.4768 31.0489 77.5267 31.0686C77.5759 31.0882 77.6651 31.0981 77.7944 31.0981C77.9237 31.0981 78.1173 31.0981 78.3752 31.0981V31.8006H77.6008C77.2038 31.7748 76.8915 31.7097 76.6631 31.6053C76.4347 31.5016 76.2616 31.4493 76.1421 31.4493C76.0029 31.4493 75.82 31.5016 75.5916 31.6053C75.3632 31.7097 75.0501 31.7748 74.6539 31.8006H73.9392V31.0981C74.3362 31.0981 74.5593 31.0852 74.6092 31.0587C74.6584 31.033 74.6834 30.9422 74.6834 30.7855V24.8705H72.8972V30.7855C72.8972 30.9422 72.9168 31.033 72.9561 31.0587C72.9962 31.0852 73.2148 31.0981 73.6118 31.0981V31.8006H72.8669C72.4699 31.7748 72.1576 31.7097 71.9292 31.6053C71.7008 31.5016 71.5178 31.4493 71.3787 31.4493C71.2592 31.4493 71.086 31.5016 70.8576 31.6053C70.6293 31.7097 70.3169 31.7748 69.9199 31.8006H69.2348V31.0981C69.6915 31.0981 69.9494 31.0852 70.0092 31.0587C70.0681 31.033 70.0984 30.9422 70.0984 30.7855C70.0984 26.2883 70.0984 23.5382 70.0984 19.1697C70.0984 19.0266 70.0681 18.9388 70.0092 18.9063C69.9494 18.8737 69.6915 18.8578 69.2348 18.8578V18.1546H69.7709C70.2073 18.1682 70.5499 18.2326 70.7979 18.3499C71.0459 18.4672 71.2395 18.5255 71.3787 18.5255C71.5178 18.5255 71.7061 18.4672 71.9443 18.3499C72.1825 18.2326 72.5198 18.1682 72.9561 18.1546H73.6118V18.8578C73.2344 18.8578 73.0212 18.8737 72.9713 18.9063C72.9214 18.9388 72.8972 19.0266 72.8972 19.1697V23.9924H74.6834V19.1697C74.6834 19.0266 74.6584 18.9388 74.6092 18.9063C74.5593 18.8737 74.3362 18.8578 73.9392 18.8578V18.1546H74.5639C75.001 18.1682 75.3382 18.2326 75.5764 18.3499C75.8147 18.4672 76.0029 18.5255 76.1421 18.5255C76.2616 18.5255 76.4446 18.4672 76.6934 18.3499C76.9414 18.2326 77.2832 18.1682 77.7203 18.1546H78.3752V18.8578ZM87.4854 30.2389C87.4854 30.6038 87.3069 30.9096 86.95 31.1564C86.5923 31.4039 86.1408 31.5894 85.5956 31.7128C85.0496 31.8369 84.4537 31.8982 83.8086 31.8982C83.1636 31.8982 82.5684 31.8331 82.0224 31.7029C81.4765 31.5727 81.025 31.3812 80.6673 31.1276C80.3104 30.8733 80.1319 30.5576 80.1319 30.1806C80.1319 25.987 80.1319 23.6911 80.1319 19.5996C80.1319 19.2219 80.3104 18.9032 80.6673 18.6428C81.025 18.3824 81.4765 18.1871 82.0224 18.0569C82.5684 17.9267 83.1636 17.8624 83.8086 17.8624C84.4537 17.8624 85.0496 17.9237 85.5956 18.0479C86.1408 18.1712 86.5923 18.3567 86.95 18.6035C87.3069 18.851 87.4854 19.1568 87.4854 19.5217C87.4854 23.6646 87.4854 25.9991 87.4854 30.2389ZM84.7463 19.1894C84.7463 19.0206 84.6526 18.8934 84.4635 18.8086C84.2752 18.7246 84.0763 18.6822 83.8684 18.6822C83.6597 18.6822 83.4615 18.7246 83.2725 18.8086C83.0842 18.8934 82.9897 19.0206 82.9897 19.1894V30.6689C82.9897 30.8248 83.0842 30.9422 83.2725 31.0201C83.4615 31.0981 83.6597 31.1374 83.8684 31.1374C84.0763 31.1374 84.2752 31.0981 84.4635 31.0201C84.6526 30.9422 84.7463 30.8248 84.7463 30.6689V19.1894ZM97.5786 22.6253C97.5786 22.8728 97.5786 23.1007 97.5786 23.3088C97.5786 23.517 97.5295 23.7093 97.4296 23.8849C97.3306 24.0605 97.1521 24.2232 96.8942 24.3724C96.6364 24.5223 96.2492 24.6623 95.7327 24.7925C95.4552 24.8705 95.1277 24.9287 94.7504 24.9681C94.373 25.0075 93.8671 25.0264 93.2319 25.0264H92.9642V30.8051C92.9642 30.9482 92.9937 31.036 93.0534 31.0686C93.1132 31.1011 93.3809 31.1178 93.8573 31.1178V31.8006H93.0239C92.6662 31.7748 92.3781 31.7097 92.1603 31.6053C91.9418 31.5016 91.7633 31.4493 91.6242 31.4493C91.5251 31.4493 91.3565 31.5016 91.1182 31.6053C90.88 31.7097 90.5428 31.7748 90.1057 31.8006H89.2421V31.1178C89.6988 31.1178 89.9522 31.1011 90.0013 31.0686C90.0512 31.036 90.0762 30.9482 90.0762 30.8051C90.0762 26.364 90.0762 23.3709 90.0762 18.9941C90.0762 18.8381 90.0512 18.7435 90.0013 18.711C89.9522 18.6784 89.6988 18.6625 89.2421 18.6625V17.9593H89.8977C90.3938 17.9593 90.7704 18.0244 91.029 18.1546C91.2869 18.2848 91.485 18.3499 91.6242 18.3499C91.783 18.3499 91.9811 18.2848 92.2193 18.1546C92.4575 18.0244 92.7955 17.9593 93.2319 17.9593H93.8868C94.3435 17.9593 94.7897 17.9956 95.2268 18.0668C95.6631 18.1387 96.0556 18.2424 96.4027 18.3794C96.7498 18.5164 97.0326 18.6852 97.2512 18.8866C97.4697 19.0887 97.5786 19.3196 97.5786 19.58V22.6253ZM94.7504 19.58C94.7504 19.2159 94.5817 19.0009 94.2445 18.9358C93.9064 18.8707 93.4799 18.8381 92.9642 18.8381V19.5217V24.2263C93.52 24.2263 93.9563 24.1907 94.2739 24.1188C94.5916 24.0476 94.7504 23.8357 94.7504 23.4844V19.58Z" />
</symbol>
</svg>
