<svg width="5" height="8" viewBox="0 0 5 8" fill="none" xmlns="http://www.w3.org/2000/svg">
<path fill-rule="evenodd" clip-rule="evenodd" d="M0.524477 7.90961C0.494076 7.88104 0.469957 7.84709 0.4535 7.80971C0.437042 7.77233 0.428571 7.73226 0.428571 7.69179C0.428571 7.65133 0.437043 7.61126 0.4535 7.57388C0.469957 7.5365 0.494076 7.50255 0.524477 7.47397L4.21137 3.99992L0.524478 0.525865C0.46318 0.468095 0.428743 0.389743 0.428743 0.308044C0.428743 0.226345 0.46318 0.147993 0.524478 0.0902234C0.585776 0.0324538 0.668914 -6.26227e-07 0.755603 -6.18649e-07C0.842291 -6.1107e-07 0.925429 0.0324538 0.986727 0.0902234L4.90409 3.7821C4.9345 3.81068 4.95862 3.84463 4.97507 3.882C4.99153 3.91938 5 3.95945 5 3.99992C5 4.04039 4.99153 4.08046 4.97507 4.11783C4.95862 4.15521 4.9345 4.18916 4.90409 4.21774L0.986727 7.90961C0.956403 7.93826 0.920378 7.961 0.880718 7.97651C0.841058 7.99202 0.798541 8 0.755602 8C0.712663 8 0.670146 7.99202 0.630486 7.97651C0.590826 7.961 0.554801 7.93826 0.524477 7.90961Z" fill="white"/>
</svg>
