<svg width="24" height="24" viewBox="0 0 24 24" fill="none" xmlns="http://www.w3.org/2000/svg">
<g clip-path="url(#clip0_92_127)">
<path d="M19.125 21.75C20.5725 21.75 21.75 20.5725 21.75 19.125C21.75 17.6775 20.5725 16.5 19.125 16.5C17.6775 16.5 16.5 17.6775 16.5 19.125C16.5 20.5725 17.6775 21.75 19.125 21.75ZM19.125 17.25C20.1585 17.25 21 18.0907 21 19.125C21 20.1593 20.1585 21 19.125 21C18.0915 21 17.25 20.1593 17.25 19.125C17.25 18.0907 18.0915 17.25 19.125 17.25Z" fill="#6D6163"/>
<path d="M14.049 17.9624C14.049 19.0507 14.3167 20.4157 14.676 21.1882C15.411 23.0534 16.857 23.9999 18.975 23.9999C21.7455 23.9999 24 21.7454 24 18.9749C24 16.2802 21.8865 14.3249 18.975 14.3249C15.6652 14.3249 14.5852 12.5467 14.5425 12.4732C14.5275 12.4477 14.5102 12.4237 14.49 12.4019L2.97375 0.118444C2.86875 0.00669374 2.70525 -0.0293063 2.562 0.0261937C2.4195 0.0824437 2.325 0.221194 2.325 0.374944C2.325 7.61319 7.152 11.4112 10.6762 14.1832C12.561 15.6659 14.049 16.8359 14.049 17.9624ZM3.108 1.35819L13.917 12.8872C14.118 13.2052 15.45 15.0749 18.975 15.0749C21.4522 15.0749 23.25 16.7152 23.25 18.9749C23.25 21.3329 21.3322 23.2499 18.975 23.2499C17.1712 23.2499 15.993 22.4849 15.3652 20.8919C15.0907 20.3024 14.799 19.0747 14.799 17.9624C14.799 16.4722 13.1842 15.2017 11.1405 13.5937C7.90275 11.0467 3.5265 7.60494 3.108 1.35819Z" fill="#6D6163"/>
<path d="M2.25 19.125C2.25 20.5725 3.4275 21.75 4.875 21.75C6.3225 21.75 7.5 20.5725 7.5 19.125C7.5 17.6775 6.3225 16.5 4.875 16.5C3.4275 16.5 2.25 17.6775 2.25 19.125ZM6.75 19.125C6.75 20.1593 5.9085 21 4.875 21C3.8415 21 3 20.1593 3 19.125C3 18.0907 3.8415 17.25 4.875 17.25C5.9085 17.25 6.75 18.0907 6.75 19.125Z" fill="#6D6163"/>
<path d="M15.4755 11.6029C15.3225 11.7424 15.3112 11.9794 15.4507 12.1324C15.525 12.2134 15.6263 12.2546 15.7283 12.2546C15.8183 12.2546 15.909 12.2224 15.981 12.1564C18.6322 9.74136 21.675 6.22011 21.675 0.374611C21.675 0.220861 21.5812 0.0821115 21.438 0.0258615C21.2955 -0.0288885 21.132 0.00636149 21.0262 0.118111L12.8362 8.85261C12.6945 9.00336 12.702 9.24111 12.8535 9.38211C13.0043 9.52311 13.2412 9.51711 13.3837 9.36561L20.8942 1.35561C20.5747 6.32811 17.8598 9.43011 15.4755 11.6029Z" fill="#6D6163"/>
<path d="M8.18325 14.1716C8.376 14.0966 8.472 13.8799 8.39775 13.6871C8.3235 13.4944 8.10525 13.3969 7.9125 13.4734C7.75425 13.5349 7.58325 13.6106 7.3995 13.6924C6.7665 13.9736 5.97825 14.3246 5.025 14.3246C2.1135 14.3246 0 16.2799 0 18.9746C0 21.7451 2.2545 23.9996 5.025 23.9996C7.143 23.9996 8.589 23.0531 9.31425 21.2081C9.69375 20.3944 9.75 18.6131 9.75 17.6246C9.75 17.4229 10.3215 16.9924 10.6635 16.7351C10.9792 16.4981 11.3055 16.2521 11.5305 15.9986C11.6677 15.8434 11.6535 15.6064 11.499 15.4691C11.3445 15.3311 11.1068 15.3461 10.9695 15.5006C10.794 15.6994 10.4985 15.9214 10.212 16.1366C9.58875 16.6061 9 17.0486 9 17.6246C9 19.1786 8.8635 20.4004 8.62575 20.9126C8.007 22.4846 6.82875 23.2496 5.025 23.2496C2.66775 23.2496 0.75 21.3319 0.75 18.9746C0.75 16.7141 2.54775 15.0746 5.025 15.0746C6.138 15.0746 7.04325 14.6711 7.70475 14.3764C7.87575 14.2999 8.0355 14.2294 8.18325 14.1716Z" fill="#6D6163"/>
<path d="M12 13.3423C12.3339 13.3423 12.6045 13.0717 12.6045 12.7378C12.6045 12.4039 12.3339 12.1333 12 12.1333C11.6662 12.1333 11.3955 12.4039 11.3955 12.7378C11.3955 13.0717 11.6662 13.3423 12 13.3423Z" fill="#6D6163"/>
</g>
<defs>
<clipPath id="clip0_92_127">
<rect width="24" height="24" fill="white"/>
</clipPath>
</defs>
</svg>
