<svg xmlns="http://www.w3.org/2000/svg" display="none">

    <symbol id="i-phone" viewBox="0 0 22 22">
        <path d="M21.3726 15.546L16.56 13.4834C16.3544 13.3958 16.1259 13.3774 15.909 13.4308C15.692 13.4843 15.4982 13.6068 15.3569 13.7799L13.2256 16.3839C9.88073 14.8068 7.18889 12.115 5.61182 8.77012L8.21577 6.63883C8.38923 6.49775 8.512 6.304 8.5655 6.08691C8.61899 5.86982 8.60031 5.6412 8.51226 5.43568L6.44972 0.623098C6.35309 0.401551 6.18218 0.220665 5.96647 0.111631C5.75075 0.00259757 5.50375 -0.0277499 5.26806 0.0258218L0.799233 1.05709C0.571997 1.10956 0.369256 1.23751 0.224101 1.42005C0.0789458 1.60258 -5.23459e-05 1.82893 2.60232e-08 2.06215C2.60232e-08 13.0838 8.93336 22 19.9379 22C20.1711 22.0001 20.3976 21.9212 20.5802 21.776C20.7628 21.6309 20.8908 21.4281 20.9433 21.2008L21.9746 16.7319C22.0278 16.4951 21.9968 16.2471 21.887 16.0307C21.7771 15.8142 21.5952 15.6428 21.3726 15.546Z"/>
    </symbol>

    <symbol id="i-play" viewBox="0 0 33 38">
        <path d="M30.4949 17.2205L30.4986 17.2227C31.8333 18.0124 31.8349 19.9778 30.4968 20.7721L30.4952 20.7731L4.56586 36.21L4.5638 36.2112C3.23333 37.0062 1.5 36.0577 1.5 34.4337V3.55255C1.5 2.59303 1.96434 2.01966 2.54769 1.72781C3.1883 1.40732 3.97758 1.42623 4.56559 1.77616C4.56568 1.77621 4.56577 1.77627 4.56586 1.77632L30.4949 17.2205Z" stroke="white" stroke-width="3"/>
    </symbol>

    <symbol id="i-arrow" viewBox="0 0 114 23">
        <path d="M112.721 12.5606C113.306 11.9748 113.306 11.0251 112.721 10.4393L103.175 0.89334C102.589 0.307554 101.639 0.307554 101.053 0.893341C100.468 1.47913 100.468 2.42888 101.053 3.01466L109.539 11.4999L101.053 19.9852C100.468 20.571 100.468 21.5208 101.053 22.1065C101.639 22.6923 102.589 22.6923 103.175 22.1065L112.721 12.5606ZM8.47589e-07 13L111.66 12.9999L111.66 9.99994L-8.47659e-07 10L8.47589e-07 13Z" />
    </symbol>

    <symbol id="i-slider-arrow" viewBox="0 0 65 46">
        <path d="M23.3141 45.2415L0.956248 22.8837L23.3141 0.525879L26.9656 4.17744L10.7578 20.3212H51.4375V25.4462H10.7578L26.9656 41.5899L23.3141 45.2415Z" />
        <path d="M59.125 20.3213H64.25V25.4463H59.125V20.3213Z" />
    </symbol>

    <symbol id="i-scissors" viewBox="0 0 24 24">
        <g clip-path="url(#clip0_92_135)">
            <path d="M19.125 21.75C20.5725 21.75 21.75 20.5725 21.75 19.125C21.75 17.6775 20.5725 16.5 19.125 16.5C17.6775 16.5 16.5 17.6775 16.5 19.125C16.5 20.5725 17.6775 21.75 19.125 21.75ZM19.125 17.25C20.1585 17.25 21 18.0907 21 19.125C21 20.1593 20.1585 21 19.125 21C18.0915 21 17.25 20.1593 17.25 19.125C17.25 18.0907 18.0915 17.25 19.125 17.25Z" />
            <path d="M14.049 17.9624C14.049 19.0507 14.3167 20.4157 14.676 21.1882C15.411 23.0534 16.857 23.9999 18.975 23.9999C21.7455 23.9999 24 21.7454 24 18.9749C24 16.2802 21.8865 14.3249 18.975 14.3249C15.6652 14.3249 14.5852 12.5467 14.5425 12.4732C14.5275 12.4477 14.5102 12.4237 14.49 12.4019L2.97375 0.118444C2.86875 0.00669374 2.70525 -0.0293063 2.562 0.0261937C2.4195 0.0824437 2.325 0.221194 2.325 0.374944C2.325 7.61319 7.152 11.4112 10.6762 14.1832C12.561 15.6659 14.049 16.8359 14.049 17.9624ZM3.108 1.35819L13.917 12.8872C14.118 13.2052 15.45 15.0749 18.975 15.0749C21.4522 15.0749 23.25 16.7152 23.25 18.9749C23.25 21.3329 21.3322 23.2499 18.975 23.2499C17.1712 23.2499 15.993 22.4849 15.3652 20.8919C15.0907 20.3024 14.799 19.0747 14.799 17.9624C14.799 16.4722 13.1842 15.2017 11.1405 13.5937C7.90275 11.0467 3.5265 7.60494 3.108 1.35819Z" />
            <path d="M2.25 19.125C2.25 20.5725 3.4275 21.75 4.875 21.75C6.3225 21.75 7.5 20.5725 7.5 19.125C7.5 17.6775 6.3225 16.5 4.875 16.5C3.4275 16.5 2.25 17.6775 2.25 19.125ZM6.75 19.125C6.75 20.1593 5.9085 21 4.875 21C3.8415 21 3 20.1593 3 19.125C3 18.0907 3.8415 17.25 4.875 17.25C5.9085 17.25 6.75 18.0907 6.75 19.125Z" />
            <path d="M15.4755 11.6029C15.3225 11.7424 15.3112 11.9794 15.4507 12.1324C15.525 12.2134 15.6263 12.2546 15.7283 12.2546C15.8183 12.2546 15.909 12.2224 15.981 12.1564C18.6322 9.74136 21.675 6.22011 21.675 0.374611C21.675 0.220861 21.5812 0.0821115 21.438 0.0258615C21.2955 -0.0288885 21.132 0.00636149 21.0262 0.118111L12.8362 8.85261C12.6945 9.00336 12.702 9.24111 12.8535 9.38211C13.0043 9.52311 13.2412 9.51711 13.3837 9.36561L20.8942 1.35561C20.5747 6.32811 17.8598 9.43011 15.4755 11.6029Z" />
            <path d="M8.18325 14.1716C8.376 14.0966 8.472 13.8799 8.39775 13.6871C8.3235 13.4944 8.10525 13.3969 7.9125 13.4734C7.75425 13.5349 7.58325 13.6106 7.3995 13.6924C6.7665 13.9736 5.97825 14.3246 5.025 14.3246C2.1135 14.3246 0 16.2799 0 18.9746C0 21.7451 2.2545 23.9996 5.025 23.9996C7.143 23.9996 8.589 23.0531 9.31425 21.2081C9.69375 20.3944 9.75 18.6131 9.75 17.6246C9.75 17.4229 10.3215 16.9924 10.6635 16.7351C10.9792 16.4981 11.3055 16.2521 11.5305 15.9986C11.6677 15.8434 11.6535 15.6064 11.499 15.4691C11.3445 15.3311 11.1068 15.3461 10.9695 15.5006C10.794 15.6994 10.4985 15.9214 10.212 16.1366C9.58875 16.6061 9 17.0486 9 17.6246C9 19.1786 8.8635 20.4004 8.62575 20.9126C8.007 22.4846 6.82875 23.2496 5.025 23.2496C2.66775 23.2496 0.75 21.3319 0.75 18.9746C0.75 16.7141 2.54775 15.0746 5.025 15.0746C6.138 15.0746 7.04325 14.6711 7.70475 14.3764C7.87575 14.2999 8.0355 14.2294 8.18325 14.1716Z" />
            <path d="M12 13.3423C12.3339 13.3423 12.6045 13.0717 12.6045 12.7378C12.6045 12.4039 12.3339 12.1333 12 12.1333C11.6662 12.1333 11.3955 12.4039 11.3955 12.7378C11.3955 13.0717 11.6662 13.3423 12 13.3423Z" />
        </g>
        <defs>
        <clipPath id="clip0_92_135">
                <rect width="24" height="24" fill="white"/>
            </clipPath>
        </defs>
    </symbol>

    <symbol id="i-portfolio-arrow" viewBox="0 0 9 15">
        <path fill-rule="evenodd" clip-rule="evenodd" d="M8.59785 0.440401C8.65105 0.490414 8.69326 0.549827 8.72206 0.615237C8.75086 0.680647 8.76569 0.750769 8.76569 0.821587C8.76569 0.892405 8.75086 0.962528 8.72206 1.02794C8.69326 1.09335 8.65105 1.15276 8.59785 1.20277L2.14578 7.28237L8.59785 13.362C8.70512 13.4631 8.76539 13.6002 8.76539 13.7431C8.76539 13.8861 8.70512 14.0232 8.59785 14.1243C8.49058 14.2254 8.34509 14.2822 8.19338 14.2822C8.04168 14.2822 7.89619 14.2254 7.78891 14.1243L0.933521 7.66355C0.88032 7.61354 0.83811 7.55413 0.80931 7.48872C0.78051 7.42331 0.765686 7.35319 0.765686 7.28237C0.765686 7.21155 0.78051 7.14143 0.80931 7.07602C0.83811 7.01061 0.88032 6.95119 0.933521 6.90118L7.78891 0.440401C7.84198 0.390262 7.90502 0.350482 7.97443 0.32334C8.04383 0.296198 8.11824 0.282227 8.19338 0.282227C8.26853 0.282227 8.34293 0.296198 8.41234 0.32334C8.48174 0.350482 8.54478 0.390262 8.59785 0.440401Z" />
    </symbol>

    <symbol id="i-arrow-services" viewBox="0 0 373 24" >
        <path d="M372.061 13.0607C372.646 12.4749 372.646 11.5252 372.061 10.9394L362.515 1.39343C361.929 0.807643 360.979 0.807643 360.393 1.39343C359.808 1.97922 359.808 2.92896 360.393 3.51475L368.879 12L360.393 20.4853C359.808 21.0711 359.808 22.0208 360.393 22.6066C360.979 23.1924 361.929 23.1924 362.515 22.6066L372.061 13.0607ZM-1.31134e-07 13.5L371 13.5L371 10.5L1.31134e-07 10.5L-1.31134e-07 13.5Z" />
    </symbol>

</svg>